<svg width="338" height="137" viewBox="0 0 338 137" fill="none" xmlns="http://www.w3.org/2000/svg">
<path d="M17.95 115.6L16.3 115.45C15.8 115.35 15.15 114.95 14.35 114.25C13.65 113.55 13.1 112.85 12.7 112.15C12.4 111.55 12.25 110.8 12.25 109.9C12.25 106.9 14.25 100.95 18.25 92.0501C18.85 90.8501 19.15 90.1001 19.15 89.8001C19.15 89.6001 19.1 89.5001 19 89.5001L16.45 89.8001C11.75 90.6001 8.5 91.0001 6.7 91.0001C5.1 91.0001 3.95 90.7501 3.25 90.2501C2.45 89.7501 1.75 88.9001 1.15 87.7001C0.55 86.5001 0.25 85.5501 0.25 84.8501C0.25 83.4501 1.7 82.3501 4.6 81.5501C7.4 80.7501 12.5 79.8001 19.9 78.7001C22.9 78.3001 24.45 77.9501 24.55 77.6501L33.7 58.3001C33.5 58.3001 31.9 58.5001 28.9 58.9001C26 59.2001 23.95 59.3501 22.75 59.3501C21.65 59.3501 20.7 59.1001 19.9 58.6001C17.8 57.0001 16.75 55.2501 16.75 53.3501C16.75 51.5501 17.5 50.4501 19 50.0501C20.6 49.6501 23.2 49.1501 26.8 48.5501C32.2 47.8501 36.05 47.4501 38.35 47.3501C38.75 47.3501 39.1 47.3501 39.4 47.3501C39.7 47.2501 39.9 47.0001 40 46.6001C40.2 46.1001 40.45 45.5501 40.75 44.9501C46.85 33.6501 51.55 25.9501 54.85 21.8501C57.65 18.5501 59.8 16.1501 61.3 14.6501C62.9 13.1501 64.2 12.4001 65.2 12.4001C66.3 12.4001 67.3 12.9501 68.2 14.0501C69.4 15.0501 70 16.1501 70 17.3501C70 18.8501 68.85 20.9501 66.55 23.6501C64.85 25.6501 63.45 27.5001 62.35 29.2001C60.45 31.8001 58.3 35.2001 55.9 39.4001C53.6 43.5001 52.45 45.7501 52.45 46.1501L78.25 44.9501C94.25 24.3501 103.65 13.4501 106.45 12.2501L107.5 12.1001C108.7 12.1001 109.85 12.6501 110.95 13.7501C112.15 14.8501 112.75 16.1501 112.75 17.6501C112.75 18.3501 112.5 19.0501 112 19.7501C111.5 20.4501 110 22.3501 107.5 25.4501L100.3 34.4501C95.2 41.1501 92.65 44.6001 92.65 44.8001C92.85 44.9001 94.8 45.0501 98.5 45.2501C107.3 45.4501 113.3 46.1001 116.5 47.2001C119.8 48.3001 121.45 50.1501 121.45 52.7501C121.45 53.6501 121.2 54.3001 120.7 54.7001C120.3 55.0001 119.25 55.1501 117.55 55.1501L101.95 54.7001L85.15 55.1501L72.85 72.8501L81.85 73.0001C87.75 73.0001 92.05 73.1501 94.75 73.4501C97.55 73.7501 99.5 74.2501 100.6 74.9501C102.5 76.3501 103.45 77.9001 103.45 79.6001C103.45 80.5001 103 81.4001 102.1 82.3001C93.1 82.3001 87.25 82.3501 84.55 82.4501C81.85 82.4501 78.35 82.6501 74.05 83.0501C69.85 83.4501 67.35 83.7501 66.55 83.9501C65.75 84.0501 65.2 84.4001 64.9 85.0001L63.4 87.4001C58.7 94.8001 54.7 101.6 51.4 107.8C50.2 110 48.85 111.1 47.35 111.1C46.15 111.1 44.9 110.5 43.6 109.3C42.4 108.2 41.8 106.85 41.8 105.25C41.8 102.85 43.15 99.5001 45.85 95.2001L51.25 85.4501C50.55 85.4501 47.15 85.8501 41.05 86.6501C34.95 87.3501 31.75 87.7501 31.45 87.8501C26.75 98.2501 23.55 105.7 21.85 110.2C21.05 112.3 20.4 113.7 19.9 114.4C19.4 115.2 18.75 115.6 17.95 115.6ZM37.15 76.1501L47.65 75.2501C51.25 74.7501 54.85 74.3501 58.45 74.0501L70 56.8001C70.4 56.3001 70.6 56.0001 70.6 55.9001C70.6 55.7001 70.3 55.6001 69.7 55.6001C68.8 55.6001 61.2 56.0501 46.9 56.9501C46.6 57.2501 44.85 60.4001 41.65 66.4001C38.55 72.4001 37 75.6001 37 76.0001C37 76.1001 37.05 76.1501 37.15 76.1501ZM139.279 83.3501C138.679 83.3501 138.079 83.2501 137.479 83.0501C132.779 81.4501 130.429 72.3001 130.429 55.6001C130.429 45.2001 131.429 32.5501 133.429 17.6501C134.229 11.5501 135.079 7.2501 135.979 4.7501C136.879 2.1501 138.029 0.850099 139.429 0.850099C140.229 0.850099 141.079 1.1001 141.979 1.6001C144.379 2.7001 145.579 4.5501 145.579 7.1501C145.579 7.8501 145.429 8.7501 145.129 9.8501C143.829 15.1501 142.529 24.4501 141.229 37.7501C140.629 43.2501 140.329 47.6501 140.329 50.9501C144.529 43.8501 148.229 38.5001 151.429 34.9001C154.729 31.2001 158.229 29.3501 161.929 29.3501C164.529 29.3501 166.879 30.3501 168.979 32.3501C172.479 35.6501 174.229 41.1001 174.229 48.7001C174.229 53.4001 173.429 58.0501 171.829 62.6501C170.229 67.2501 167.929 70.8001 164.929 73.3001C164.329 73.7001 163.729 73.9001 163.129 73.9001C161.829 73.9001 160.579 73.3501 159.379 72.2501C158.179 71.0501 157.579 69.7001 157.579 68.2001C157.579 67.8001 158.129 66.6001 159.229 64.6001C160.829 61.4001 162.129 57.9001 163.129 54.1001C164.129 50.2001 164.629 46.8501 164.629 44.0501C164.629 42.3501 164.429 41.0501 164.029 40.1501C164.029 40.0501 163.929 40.0001 163.729 40.0001C163.129 40.0001 161.979 40.8001 160.279 42.4001C158.679 44.0001 156.929 46.0501 155.029 48.5501C151.529 53.4501 148.629 58.6001 146.329 64.0001C144.129 69.4001 142.879 74.3501 142.579 78.8501C142.379 81.8501 141.279 83.3501 139.279 83.3501ZM194.089 82.6001C193.189 82.6001 192.189 82.4001 191.089 82.0001C184.889 79.8001 181.789 73.2501 181.789 62.3501C181.789 55.5501 182.939 49.0501 185.239 42.8501C185.739 41.7501 185.989 40.6001 185.989 39.4001C185.989 37.6001 186.789 36.0001 188.389 34.6001C190.389 32.9001 192.739 32.0501 195.439 32.0501C198.539 32.0501 201.639 33.0501 204.739 35.0501C211.039 39.1501 214.189 45.0501 214.189 52.7501C214.189 59.5501 212.089 66.2501 207.889 72.8501C203.689 79.3501 199.089 82.6001 194.089 82.6001ZM192.439 71.3501C192.839 71.3501 193.339 71.0501 193.939 70.4501C197.039 67.8501 199.489 64.4501 201.289 60.2501C203.189 56.0501 204.139 52.3501 204.139 49.1501C204.139 46.2501 203.339 44.3001 201.739 43.3001L200.689 42.8501C195.289 45.0501 192.339 52.4501 191.839 65.0501C191.839 69.2501 191.989 71.3501 192.289 71.3501H192.439ZM208.136 136.6C204.036 136.6 200.386 135.1 197.186 132.1C194.386 129.6 192.686 126.6 192.086 123.1C192.086 122.2 192.336 121.5 192.836 121C193.336 120.5 193.936 120.25 194.636 120.25C196.336 120.25 197.936 121.5 199.436 124C200.536 125.7 202.036 126.55 203.936 126.55C206.136 126.55 208.636 125.65 211.436 123.85C214.136 122.05 216.586 119.55 218.786 116.35C221.786 111.65 224.136 105.55 225.836 98.0501C227.536 90.5501 228.386 82.9001 228.386 75.1001C228.386 68.5001 227.686 62.3501 226.286 56.6501C225.986 55.6501 225.836 54.8001 225.836 54.1001C225.836 51.8001 226.736 50.6001 228.536 50.5001C229.736 50.5001 231.186 51.4501 232.886 53.3501C234.686 55.1501 235.986 58.3501 236.786 62.9501C237.586 67.5501 237.986 72.8001 237.986 78.7001C237.986 84.9001 237.486 91.2501 236.486 97.7501C235.586 104.25 234.236 109.95 232.436 114.85C229.836 121.55 226.336 126.85 221.936 130.75C217.536 134.65 212.936 136.6 208.136 136.6ZM227.636 40.4501C226.936 40.4501 226.086 40.1501 225.086 39.5501C223.286 38.3501 222.386 36.8501 222.386 35.0501C222.386 33.3501 222.986 31.4501 224.186 29.3501C225.286 27.6501 226.486 26.8001 227.786 26.8001C229.486 26.8001 231.036 27.8001 232.436 29.8001C233.136 30.7001 233.486 31.7001 233.486 32.8001C233.486 34.6001 232.136 36.9001 229.436 39.7001C229.036 40.2001 228.436 40.4501 227.636 40.4501ZM256.459 81.2501C249.359 81.2501 245.809 74.3001 245.809 60.4001C245.809 52.1001 246.509 45.2501 247.909 39.8501C249.309 34.4501 251.209 31.4001 253.609 30.7001L254.809 30.5501C256.409 30.5501 257.809 31.2501 259.009 32.6501C260.309 33.9501 260.959 35.3001 260.959 36.7001C260.959 37.6001 260.559 38.4501 259.759 39.2501C259.059 39.9501 258.459 41.0501 257.959 42.5501C257.459 44.0501 256.959 46.4001 256.459 49.6001C255.659 54.2001 255.259 59.5001 255.259 65.5001C255.259 67.7001 255.409 69.1001 255.709 69.7001C256.109 69.7001 257.009 68.7501 258.409 66.8501C259.909 64.8501 261.359 62.6501 262.759 60.2501C264.159 57.8501 265.609 54.6501 267.109 50.6501C268.609 46.6501 269.859 42.7001 270.859 38.8001C271.959 34.9001 272.509 32.0501 272.509 30.2501C272.509 28.0501 273.459 26.9501 275.359 26.9501C278.059 26.9501 280.359 28.7001 282.259 32.2001C282.259 53.5001 282.359 65.6001 282.559 68.5001C282.859 70.7001 283.109 73.8501 283.309 77.9501C283.109 78.1501 282.909 78.3501 282.709 78.5501C282.509 78.7501 282.259 78.9501 281.959 79.1501C281.659 79.2501 281.259 79.3001 280.759 79.3001C279.859 79.3001 278.959 78.9501 278.059 78.2501C277.159 77.4501 276.409 76.4501 275.809 75.2501C275.609 74.7501 275.309 73.8001 274.909 72.4001C274.609 71.0001 274.309 69.6001 274.009 68.2001C273.709 66.8001 273.559 65.8501 273.559 65.3501C273.559 64.8501 273.459 64.6001 273.259 64.6001C273.159 64.6001 272.759 65.2001 272.059 66.4001C266.759 76.3001 261.559 81.2501 256.459 81.2501ZM322.042 86.5001C321.442 86.5001 320.892 86.3501 320.392 86.0501C319.392 85.4501 318.592 84.7001 317.992 83.8001C317.392 82.8001 317.092 81.8501 317.092 80.9501C317.192 80.2501 317.892 78.0501 319.192 74.3501C321.692 67.9501 323.742 61.8001 325.342 55.9001C327.042 50.0001 327.892 45.9501 327.892 43.7501C327.892 43.3501 327.792 43.1501 327.592 43.1501C327.392 43.1501 326.842 43.6001 325.942 44.5001L325.192 45.1001C320.592 49.5001 316.542 54.9001 313.042 61.3001C309.642 67.6001 307.592 73.3501 306.892 78.5501C306.692 79.8501 306.242 80.8501 305.542 81.5501C304.842 82.2501 304.042 82.6001 303.142 82.6001C301.942 82.6001 300.742 82.1501 299.542 81.2501C298.442 80.2501 297.592 78.9001 296.992 77.2001C295.892 72.6001 295.342 66.1001 295.342 57.7001C295.342 53.3001 295.492 48.8501 295.792 44.3501C295.992 40.3501 297.142 38.3501 299.242 38.3501C299.842 38.3501 300.542 38.5501 301.342 38.9501C304.042 39.7501 305.392 42.4001 305.392 46.9001L305.242 52.9001C305.442 52.9001 305.742 52.4501 306.142 51.5501C309.442 45.8501 313.192 41.0001 317.392 37.0001C321.692 33.0001 325.242 31.0001 328.042 31.0001C334.342 31.0001 337.542 35.8501 337.642 45.5501C337.642 52.8501 335.392 62.2001 330.892 73.6001C327.592 82.2001 324.642 86.5001 322.042 86.5001Z" fill="white"/>
</svg>
